HIERARCHY
ROOT Hips
{
	OFFSET 0.000000 0.000000 0.000000
	CHANNELS 6 Xposition Yposition Zposition Zrotation Yrotation Xrotation
	JOINT LHipJoint
	{
		OFFSET 0.000000 0.000000 0.000000
		CHANNELS 3 Zrotation Yrotation Xrotation
		JOINT LeftUpLeg
		{
			OFFSET 1.363060 -0.839290 -1.794630
			CHANNELS 3 Zrotation Yrotation Xrotation
			JOINT LeftLeg
			{
				OFFSET 2.448110 0.000001 -6.726130
				CHANNELS 3 Zrotation Yrotation Xrotation
				JOINT LeftFoot
				{
					OFFSET 2.562200 0.000001 -7.039590
					CHANNELS 3 Zrotation Yrotation Xrotation
					JOINT LeftToeBase
					{
						OFFSET 0.157640 -2.322550 -0.433111
						CHANNELS 3 Zrotation Yrotation Xrotation
						End Site
						{
							OFFSET 0.000000 0.000000 0.100000
						}
					}
				}
			}
		}
	}
}
MOTION
Frames: 49
Frame Time: 0.041667
0.000000 0.000000 0.000000 -9.216406 2.789479 -0.400609 -0.109884 6.538416 -0.865476 -7.277142 4.898029 -26.975750 8.971341 0.551751 22.366221 18.740451 5.498094 13.410983 -4.945065 -0.594381 -13.699777 
0.000000 0.000000 0.000000 -9.490614 3.178064 -0.353997 -0.103813 6.619897 -0.976353 -7.796583 4.082859 -26.666894 8.360829 0.877304 20.474428 19.758240 5.901236 13.328301 -4.139108 -0.414719 -11.437994 
0.000000 0.000000 0.000000 -9.831497 3.089451 -0.329121 -0.099180 6.722444 -1.051233 -7.935695 3.871377 -26.533050 7.819837 1.179662 18.892590 20.274033 6.110007 13.204622 -3.634857 -0.319156 -10.031227 
0.000000 0.000000 0.000000 -10.149741 2.866897 -0.291000 -0.087304 6.831819 -1.130433 -8.052744 3.825501 -26.477107 7.356227 1.420314 17.518284 20.870608 6.300768 13.449150 -4.233721 -0.434117 -11.702672 
0.000000 0.000000 0.000000 -10.511711 2.711751 -0.288278 -0.047164 6.926424 -1.189886 -8.181114 3.723142 -26.360919 6.960683 1.599933 16.299536 21.748613 6.587138 13.751952 -5.449135 -0.723911 -15.123856 
0.000000 0.000000 0.000000 -11.015854 2.867501 -0.410750 -0.001846 6.909782 -1.209054 -8.084003 3.434939 -26.224373 6.657819 1.740174 15.370043 22.160405 6.776531 13.461797 -5.686341 -0.789498 -15.796894 
0.000000 0.000000 0.000000 -11.415937 2.975177 -0.425688 0.001611 6.841517 -1.263353 -8.082541 3.253420 -26.252571 6.457597 1.861095 14.837592 21.783201 6.730707 12.634497 -4.991780 -0.605800 -13.831395 
0.000000 0.000000 0.000000 -11.590311 3.123000 -0.367845 -0.000192 6.769076 -1.329343 -8.279636 3.044652 -26.299454 6.346018 1.935254 14.561835 21.231781 6.584548 12.054422 -4.296530 -0.447146 -11.878515 
0.000000 0.000000 0.000000 -11.817343 3.585900 -0.425079 0.035895 6.676996 -1.337949 -8.295748 2.612584 -26.185612 6.296342 1.945653 14.336569 21.142516 6.542985 12.164825 -4.194515 -0.425952 -11.592867 
0.000000 0.000000 0.000000 -12.009732 3.729211 -0.422155 0.069384 6.655526 -1.324947 -8.087629 2.604599 -26.157408 6.285981 1.949494 14.234837 21.211310 6.513202 12.629113 -4.909959 -0.585848 -13.600878 
0.000000 0.000000 0.000000 -12.023039 3.462545 -0.365090 0.108493 6.721316 -1.287070 -7.945015 2.992999 -26.138741 6.286082 1.965267 14.252655 21.238634 6.458710 13.104252 -5.781686 -0.816730 -16.067912 
0.000000 0.000000 0.000000 -12.111276 3.079739 -0.377711 0.187842 6.822493 -1.204862 -7.952613 3.379421 -25.958050 6.308453 1.959223 14.335426 21.557745 6.522061 13.530494 -6.134195 -0.921598 -17.072965 
0.000000 0.000000 0.000000 -12.282261 2.711516 -0.421368 0.263916 6.892421 -1.095464 -7.704815 3.878390 -25.853193 6.406461 1.929400 14.621663 21.866285 6.612740 13.663839 -5.750572 -0.807817 -15.979356 
0.000000 0.000000 0.000000 -12.496062 2.755717 -0.388997 0.291896 6.852852 -1.001903 -6.957565 4.245181 -25.961141 6.610628 1.847188 15.106758 22.179427 6.710908 13.762337 -4.804531 -0.560623 -13.304084 
0.000000 0.000000 0.000000 -12.668099 3.067911 -0.216492 0.288495 6.760616 -0.955643 -5.976786 4.483613 -26.224499 6.900634 1.702772 15.706889 22.737068 6.831123 14.396866 -4.103301 -0.407456 -11.337877 
0.000000 0.000000 0.000000 -12.774506 3.168120 -0.137996 0.317990 6.709306 -0.905894 -5.041296 4.939322 -26.480486 7.273509 1.496461 16.482237 23.874499 7.105180 15.312692 -3.769167 -0.343353 -10.405383 
0.000000 0.000000 0.000000 -12.853548 2.848513 -0.201817 0.387245 6.720761 -0.842797 -4.375681 5.719619 -26.651890 7.691270 1.252647 17.419298 25.515995 7.557004 15.909546 -3.363138 -0.272934 -9.275366 
0.000000 0.000000 0.000000 -12.756352 2.455761 -0.279418 0.453058 6.729247 -0.799924 -4.053432 6.481947 -26.738616 8.075577 1.032292 18.377923 26.554870 7.806464 16.278670 -3.329132 -0.267347 -9.180756 
0.000000 0.000000 0.000000 -12.517089 2.573691 -0.418297 0.505253 6.664766 -0.755252 -3.959620 6.648936 -26.697189 8.413004 0.833536 19.281844 26.456582 7.686632 16.786080 -4.112504 -0.409346 -11.363772 
0.000000 0.000000 0.000000 -12.149604 2.763438 -0.468874 0.517439 6.585583 -0.700266 -3.881294 6.736183 -26.700951 8.691165 0.695466 20.161117 25.144462 7.163621 17.391414 -4.401246 -0.469508 -12.171671 
0.000000 0.000000 0.000000 -11.744748 2.500899 -0.425476 0.483994 6.540363 -0.648627 -3.689869 7.314660 -26.869445 8.944239 0.610508 21.126771 23.141664 6.387223 17.954320 -3.140729 -0.237845 -8.657557 
0.000000 0.000000 0.000000 -11.496516 2.460829 -0.357883 0.452955 6.482404 -0.572418 -3.330370 7.662500 -26.995860 9.155173 0.523100 21.910846 21.561572 5.743448 18.565397 -2.089503 -0.104930 -5.749275 
0.000000 0.000000 0.000000 -11.301284 2.731090 -0.270728 0.437141 6.413699 -0.489268 -3.021540 7.659299 -27.031828 9.343328 0.406980 22.540775 20.805547 5.454212 18.767133 -2.257104 -0.122507 -6.211973 
0.000000 0.000000 0.000000 -10.914339 2.518614 -0.217752 0.454873 6.447099 -0.374464 -3.034270 8.090858 -26.889176 9.492343 0.308719 23.161434 20.501655 5.417574 18.298741 -2.481708 -0.148159 -6.832583 
0.000000 0.000000 0.000000 -10.439018 1.952217 -0.210574 0.489675 6.526122 -0.215531 -3.163524 8.885070 -26.648567 9.602368 0.254150 23.816684 19.845864 5.299571 17.470623 -2.000401 -0.096139 -5.503444 
0.000000 0.000000 0.000000 -10.131197 1.484726 -0.305502 0.542414 6.587361 -0.022367 -3.301416 9.521528 -26.310382 9.649391 0.245560 24.327534 18.851901 5.061928 16.600626 -1.235201 -0.036591 -3.395412 
0.000000 0.000000 0.000000 -9.913692 1.393920 -0.401766 0.596342 6.627886 0.172480 -3.385638 9.781556 -25.927965 9.655793 0.244930 24.637964 18.040917 4.856910 15.959260 -1.435205 -0.049485 -3.945868 
0.000000 0.000000 0.000000 -9.751283 1.396875 -0.423280 0.653849 6.682626 0.381491 -3.348575 10.006041 -25.524678 9.659165 0.230989 24.879307 17.609237 4.779814 15.344025 -1.831600 -0.080561 -5.037825 
0.000000 0.000000 0.000000 -9.668996 1.217708 -0.406456 0.718239 6.767509 0.597270 -3.390212 10.375798 -25.089389 9.635315 0.226582 25.049101 17.438429 4.806507 14.605335 -1.598100 -0.061271 -4.394594 
0.000000 0.000000 0.000000 -9.498313 1.299133 -0.253373 0.744558 6.835877 0.764531 -3.510218 10.403133 -24.771684 9.550464 0.253976 24.985761 17.270014 4.794516 14.242790 -1.223702 -0.035896 -3.363836 
0.000000 0.000000 0.000000 -9.308549 1.100740 -0.143979 0.765600 6.916522 0.943246 -3.546602 10.700181 -24.458402 9.463138 0.292316 24.964562 16.930810 4.718208 13.838400 -0.699800 -0.011700 -1.923058 
0.000000 0.000000 0.000000 -9.234508 0.475436 -0.169071 0.830481 7.049753 1.190754 -3.585857 11.455841 -23.912899 9.349816 0.344910 24.941891 16.750129 4.724220 13.122078 -0.516801 -0.006400 -1.419943 
0.000000 0.000000 0.000000 -9.218170 0.263210 -0.086702 0.887351 7.154914 1.402923 -3.702926 11.782320 -23.420305 9.202434 0.409228 24.730751 16.793034 4.799180 12.563113 -0.398002 -0.003807 -1.093478 
0.000000 0.000000 0.000000 -9.125975 -0.225365 0.001631 0.931111 7.266279 1.621396 -3.772923 12.382742 -22.949738 9.040459 0.492241 24.538208 16.578189 4.781544 11.903206 -0.030697 -0.000001 -0.084402 
0.000000 0.000000 0.000000 -8.948394 -0.894738 -0.036188 0.984434 7.374151 1.856256 -3.748138 13.186036 -22.429668 8.910013 0.557178 24.451114 16.246609 4.708371 11.289002 -0.057501 -0.000097 -0.158003 
0.000000 0.000000 0.000000 -8.716374 -0.789047 -0.115035 1.062268 7.438056 2.106874 -3.654068 13.213426 -21.812516 8.756595 0.623784 24.180212 16.051532 4.656509 11.105646 -0.236802 -0.001300 -0.650595 
0.000000 0.000000 0.000000 -8.347809 -0.746829 -0.211591 1.145699 7.486155 2.361562 -3.582851 13.373321 -21.140861 8.589430 0.702514 23.915994 15.665464 4.539445 10.813083 -0.461398 -0.005098 -1.267760 
0.000000 0.000000 0.000000 -7.873540 -1.012494 -0.404899 1.227278 7.548769 2.611351 -3.554436 13.811336 -20.438668 8.421248 0.782670 23.681396 15.210240 4.392017 10.506583 -0.807098 -0.015601 -2.218082 
0.000000 0.000000 0.000000 -7.446061 -1.354585 -0.582568 1.305046 7.620125 2.841631 -3.611234 14.255722 -19.750503 8.249818 0.858694 23.412756 14.931495 4.306106 10.255314 -1.157699 -0.032192 -3.182250 
0.000000 0.000000 0.000000 -7.111809 -1.656625 -0.653522 1.376823 7.681203 3.065542 -3.644148 14.720577 -19.095546 8.088959 0.924342 23.166487 14.771363 4.276627 9.840789 -1.452600 -0.050684 -3.993915 
0.000000 0.000000 0.000000 -6.782667 -1.423545 -0.725126 1.458437 7.715502 3.300365 -3.546171 14.640586 -18.474210 7.955423 0.973475 22.925040 14.611081 4.235695 9.623088 -1.495998 -0.053679 -4.113300 
0.000000 0.000000 0.000000 -6.318798 -1.084172 -0.739299 1.531622 7.742582 3.498702 -3.583309 14.384558 -17.936466 7.848027 1.012098 22.740152 14.330259 4.140329 9.549317 -1.630801 -0.063876 -4.484585 
0.000000 0.000000 0.000000 -5.817701 -0.855108 -0.809021 1.626768 7.759911 3.679474 -3.919465 14.236223 -17.309748 7.775095 1.032772 22.686145 14.040357 4.062091 9.173782 -1.676402 -0.067469 -4.610127 
0.000000 0.000000 0.000000 -5.336789 -0.723790 -1.000231 1.749155 7.771955 3.875912 -4.392845 14.223761 -16.542875 7.698504 1.056264 22.653166 13.811179 4.030388 8.379481 -1.165399 -0.032594 -3.203238 
0.000000 0.000000 0.000000 -4.789899 -0.624844 -1.110206 1.842504 7.782061 4.064812 -4.663646 14.261965 -15.882029 7.609011 1.089474 22.576731 13.478255 3.944868 7.705565 -0.624101 -0.009302 -1.714900 
0.000000 0.000000 0.000000 -4.149211 -0.602075 -1.110803 1.904105 7.781583 4.230371 -4.753919 14.404860 -15.354187 7.552261 1.105234 22.592143 12.954907 3.766612 7.294269 -0.404503 -0.003904 -1.111570 
0.000000 0.000000 0.000000 -3.553070 -0.655205 -1.175463 1.974853 7.782203 4.379588 -4.945325 14.584119 -14.821702 7.528472 1.099589 22.680036 12.608175 3.655043 6.903141 -0.791598 -0.015002 -2.175393 
0.000000 0.000000 0.000000 -3.027162 -0.310916 -1.267819 2.058593 7.771149 4.522276 -5.177359 14.261498 -14.360814 7.519594 1.082169 22.724775 12.555937 3.645971 6.799736 -1.775203 -0.075659 -4.882457 
0.000000 0.000000 0.000000 -2.446279 -0.099734 -1.172913 2.098836 7.757516 4.630522 -5.384990 14.102079 -14.046155 7.504994 1.074677 22.792888 12.246045 3.543540 6.530946 -2.191604 -0.115521 -6.031080 
